<?xml version="1.0" standalone="no"?>
<!DOCTYPE svg PUBLIC "-//W3C//DTD SVG 20010904//EN"
 "http://www.w3.org/TR/2001/REC-SVG-20010904/DTD/svg10.dtd">
<svg version="1.0" xmlns="http://www.w3.org/2000/svg"
 width="512.000000pt" height="512.000000pt" viewBox="0 0 512.000000 512.000000"
 preserveAspectRatio="xMidYMid meet">
<metadata>
Created by potrace 1.11, written by Peter Selinger 2001-2013
</metadata>
<g transform="translate(0.000000,512.000000) scale(0.100000,-0.100000)"
fill="#000000" stroke="none">
<path d="M2490 4953 c-37 -15 -47 -58 -17 -77 25 -16 53 15 38 42 -13 24 6 36
25 17 26 -25 25 -51 -3 -82 -40 -42 -55 -71 -48 -93 4 -12 -2 -23 -16 -34 -14
-10 -23 -27 -24 -50 -3 -40 -11 -56 -28 -55 -9 0 -8 2 1 6 6 2 10 9 6 14 -3 5
-1 9 4 9 6 0 8 10 5 23 -15 60 -90 77 -130 30 -15 -17 -23 -21 -24 -12 -1 8
-2 21 -3 29 -1 8 7 25 17 36 18 21 18 22 -12 19 -17 -1 -31 1 -31 6 0 14 -28
11 -37 -4 -4 -8 -16 -16 -25 -20 -17 -6 -26 -28 -10 -26 20 3 30 -3 41 -27 15
-34 8 -41 -21 -22 -47 30 -118 -19 -106 -73 6 -27 39 -49 59 -39 15 9 17 14 8
34 -8 16 -17 22 -30 19 -15 -4 -18 -2 -13 11 13 33 45 13 67 -40 27 -62 67
-114 83 -107 8 3 12 -3 11 -15 -1 -19 -3 -19 -37 7 -42 33 -101 61 -112 55 -4
-3 -8 -14 -8 -25 0 -16 -4 -18 -17 -11 -22 11 -92 7 -139 -8 -38 -13 -90 -58
-118 -102 -9 -16 -24 -28 -34 -28 -10 0 -23 -5 -30 -12 -7 -7 -12 -9 -12 -4 0
4 -13 -1 -30 -10 -38 -23 -72 -100 -65 -146 4 -21 0 -41 -9 -53 -13 -18 -14
-13 -14 50 0 39 4 78 9 88 8 13 6 17 -8 17 -27 0 -63 -28 -63 -49 0 -14 -8
-18 -42 -17 -37 1 -43 -2 -41 -19 2 -18 -4 -20 -47 -20 -54 -1 -68 -9 -75 -45
-4 -19 -45 -71 -45 -56 0 2 -15 0 -32 -6 -18 -5 -38 -10 -45 -11 -7 0 -9 -5
-6 -10 4 -6 -7 -8 -28 -4 l-34 7 40 -25 c22 -14 47 -25 55 -26 8 0 23 -2 34
-4 21 -4 62 12 89 33 15 14 17 13 17 -6 0 -25 22 -29 42 -9 30 30 68 48 88 42
37 -12 69 -66 66 -110 -5 -61 -19 -86 -85 -154 -59 -61 -62 -63 -81 -46 -20
18 -70 14 -70 -6 0 -6 4 -8 9 -5 4 3 16 0 26 -8 14 -10 15 -17 6 -33 -11 -21
-43 -25 -69 -9 -19 12 -14 54 8 66 25 13 26 46 2 59 -10 5 -18 19 -19 31 -3
34 -22 50 -62 50 -36 0 -36 0 -11 -13 26 -13 30 -42 15 -113 -8 -38 15 -90 45
-99 30 -9 13 -27 -20 -21 -38 5 -50 14 -59 39 -5 14 -3 30 6 44 9 13 10 23 4
27 -6 4 -6 17 1 36 15 44 4 63 -32 58 -34 -5 -37 3 -14 41 20 34 61 48 136 47
84 -2 129 -53 78 -89 -17 -12 -18 -16 -7 -20 8 -3 23 -4 33 -2 11 2 22 4 25 4
4 1 9 11 12 22 4 16 11 20 26 16 11 -3 28 1 37 8 16 11 16 13 -4 33 -17 17
-18 23 -7 32 7 6 12 19 10 28 -2 9 -4 19 -4 22 -1 3 -10 11 -22 18 -12 8 -18
9 -14 3 3 -6 -5 -21 -19 -34 -18 -17 -35 -23 -65 -21 -23 1 -46 6 -53 11 -21
17 -118 -7 -118 -28 0 -5 -5 -8 -11 -6 -6 1 -24 -14 -40 -34 -45 -54 -50 -128
-15 -197 14 -28 26 -54 26 -57 0 -5 -21 -3 -85 11 -16 3 -43 18 -58 32 -24 22
-29 24 -37 12 -14 -22 -12 -42 5 -67 14 -20 13 -23 -8 -40 -38 -31 -87 -106
-87 -133 0 -40 -49 -81 -99 -85 -24 -1 -41 2 -41 8 0 6 -3 7 -7 3 -16 -16 -9
-37 20 -62 24 -20 38 -25 63 -21 27 5 33 2 38 -17 3 -13 15 -35 27 -50 26 -33
43 -23 61 36 10 34 15 38 34 34 45 -12 88 24 99 82 5 27 -2 27 -35 2 -34 -26
-66 -25 -96 5 -21 21 -23 30 -18 67 16 110 79 149 252 154 65 1 112 -1 112 -7
0 -5 -3 -9 -7 -9 -5 0 -30 -34 -58 -75 -27 -41 -53 -74 -56 -75 -3 0 -5 12 -3
28 1 15 2 34 3 43 1 9 13 28 27 43 29 28 24 32 -23 16 -27 -10 -46 -33 -55
-68 -3 -10 -10 -8 -27 7 -13 12 -35 21 -48 21 -27 0 -74 -41 -54 -48 7 -2 16
-1 20 4 12 18 40 14 46 -6 3 -11 20 -33 36 -49 24 -25 29 -36 24 -63 -8 -49
-42 -116 -64 -128 -30 -16 -44 -12 -38 10 6 23 3 24 -24 10 -23 -13 -25 -43
-3 -64 14 -15 13 -17 -13 -27 -37 -14 -61 -20 -99 -23 -17 -2 -35 -5 -40 -8
-21 -11 -127 6 -132 22 -2 5 -12 10 -23 10 -27 0 -25 37 4 46 12 4 28 7 36 5
21 -4 7 23 -19 36 -14 7 -32 8 -44 3 -18 -7 -25 -2 -44 31 -13 21 -29 39 -37
39 -20 0 -38 -37 -33 -70 4 -24 0 -29 -23 -34 -35 -7 -54 -53 -37 -88 7 -14
11 -13 37 12 33 33 53 33 110 -1 20 -12 50 -23 66 -25 17 -2 39 -6 50 -8 11
-3 27 -5 34 -5 10 -1 11 -4 5 -10 -12 -13 -91 -30 -99 -23 -3 3 -13 7 -23 8
-9 2 -18 8 -20 13 -2 6 -12 11 -22 11 -10 0 -22 5 -25 10 -6 9 -55 15 -55 6 0
-14 83 -85 102 -88 13 -2 26 -10 29 -18 4 -9 19 -15 39 -16 28 0 33 -4 36 -26
2 -19 -10 -39 -47 -78 -27 -29 -55 -64 -61 -78 -16 -32 -55 -43 -86 -24 -21
13 -22 13 -22 -11 0 -28 23 -57 45 -57 11 0 12 -6 6 -22 -8 -23 5 -68 20 -68
4 0 19 14 33 31 14 17 30 27 36 24 17 -11 69 5 74 23 10 31 6 36 -26 36 -35 1
-47 21 -32 54 4 9 8 24 8 32 1 17 24 49 48 68 15 12 22 10 50 -12 40 -30 98
-38 134 -20 33 18 33 18 29 -3 -2 -10 -4 -22 -5 -28 0 -5 -7 -19 -16 -30 -14
-19 -15 -19 -39 9 -27 31 -80 42 -102 20 -24 -24 -10 -95 16 -80 6 4 9 12 6
17 -4 5 1 16 9 25 14 14 18 13 41 -12 24 -26 25 -49 2 -41 -7 2 -22 -8 -34
-22 -35 -40 -31 -45 30 -41 16 1 37 -6 47 -15 17 -16 18 -19 4 -40 -14 -21
-17 -22 -42 -9 -33 17 -70 17 -99 1 -21 -12 -19 -38 3 -39 5 0 14 -2 19 -3 34
-10 54 -12 57 -5 2 4 15 10 30 14 21 5 30 2 37 -13 15 -27 -18 -55 -59 -49
-32 5 -54 -10 -42 -29 4 -6 21 -19 39 -30 31 -19 32 -20 17 -42 -21 -29 -59
-25 -60 7 -2 34 -12 38 -25 9 -37 -81 51 -115 113 -45 22 25 35 17 47 -29 12
-41 8 -51 -12 -35 -18 16 -87 24 -87 11 0 -6 -4 -8 -9 -5 -5 3 -25 -6 -46 -20
-36 -24 -38 -24 -59 -7 -28 24 -40 43 -44 73 -2 14 -7 29 -12 34 -5 5 -5 17 1
28 8 15 18 18 44 15 38 -5 41 9 10 43 -15 17 -28 21 -51 17 -26 -4 -34 -1 -44
18 -27 50 -61 37 -62 -23 0 -24 -4 -39 -10 -36 -13 8 -37 -26 -38 -53 0 -23
14 -31 24 -14 12 19 47 18 71 -1 14 -11 23 -23 20 -28 -3 -4 19 -34 49 -65 42
-44 54 -64 51 -84 -2 -23 -6 -26 -34 -23 -26 3 -34 -1 -38 -17 -3 -12 -10 -21
-17 -20 -26 3 -37 -3 -76 -42 -22 -22 -40 -42 -40 -45 0 -9 47 -3 58 8 7 7 12
9 12 4 0 -4 13 2 29 13 16 12 40 21 54 21 39 0 87 -12 87 -21 0 -11 -45 -23
-92 -23 -21 -1 -40 -7 -43 -13 -2 -7 -11 -13 -19 -13 -8 0 -16 -4 -18 -9 -1
-5 -18 -11 -35 -14 -24 -4 -36 -1 -43 11 -5 10 -10 13 -10 8 0 -4 -9 2 -20 15
-14 18 -20 20 -21 9 -1 -8 -3 -25 -4 -37 -3 -33 35 -69 68 -64 4 1 5 -10 1
-24 -3 -14 -1 -39 6 -55 12 -28 13 -29 36 -13 13 8 27 26 30 39 5 19 12 23 45
22 37 0 69 15 69 33 0 4 -8 6 -18 4 -25 -4 -56 21 -49 40 4 8 13 15 22 15 8 0
15 4 15 9 0 5 20 14 45 19 53 11 106 7 180 -14 6 -2 21 -5 34 -8 31 -7 35 -12
26 -33 -15 -33 -14 -45 6 -66 l19 -21 0 22 c0 53 51 31 83 -36 30 -62 27 -109
-8 -139 -14 -13 -27 -31 -28 -41 -1 -19 -30 -24 -54 -9 -22 14 -23 -12 -1 -27
31 -22 60 -20 92 5 25 20 26 20 26 2 0 -18 33 -62 48 -64 56 -6 54 -8 27 19
-14 14 -25 27 -26 31 -6 52 -3 78 8 74 7 -3 13 -9 13 -13 0 -4 22 -38 50 -76
27 -38 50 -72 50 -76 0 -3 -12 -3 -27 1 -16 4 -62 6 -103 6 -41 -1 -93 4 -115
12 -36 12 -103 63 -106 81 -1 4 -3 16 -5 27 -2 11 -6 32 -10 47 -9 39 36 80
80 72 17 -3 38 -12 47 -20 23 -21 31 -4 18 35 -13 36 -52 60 -91 55 -26 -2
-32 4 -29 31 0 6 -10 23 -23 40 l-24 29 -30 -48 c-27 -43 -36 -49 -68 -51 -27
-1 -44 -10 -61 -29 -13 -15 -23 -31 -23 -36 0 -5 23 -8 52 -7 33 1 53 -2 55
-10 3 -7 10 -13 17 -13 15 0 36 -42 36 -70 0 -20 60 -103 94 -132 20 -16 20
-17 3 -30 -13 -10 -17 -22 -13 -42 7 -38 15 -44 30 -24 13 17 77 49 93 47 5
-1 10 0 13 1 3 1 17 3 32 4 24 2 25 0 15 -17 -37 -60 -45 -85 -44 -137 2 -44
8 -63 31 -93 44 -58 136 -97 173 -74 41 26 152 -5 139 -39 -4 -12 -2 -12 14
-4 11 6 21 18 21 28 2 23 2 24 -6 43 -3 10 1 24 11 34 17 17 17 18 0 31 -13 9
-24 10 -37 3 -14 -7 -19 -6 -19 4 0 21 -33 46 -58 44 -25 -1 -30 -25 -7 -34
21 -7 15 -44 -10 -64 -15 -12 -39 -16 -92 -14 -79 2 -102 14 -129 67 -15 30
-13 33 14 19 12 -6 24 -5 36 5 17 12 18 18 9 49 -6 19 -7 37 -3 40 5 3 3 19
-3 35 -12 31 -2 65 19 65 5 0 14 3 20 7 11 8 52 3 62 -7 3 -3 -1 -5 -10 -5 -8
0 -26 -9 -39 -21 -27 -23 -31 -79 -11 -137 10 -31 9 -34 -20 -52 -25 -15 -27
-19 -12 -22 21 -4 73 19 75 33 1 5 2 17 3 27 0 9 9 20 18 24 24 10 23 39 -2
61 -28 24 -26 55 5 67 29 11 51 5 60 -18 6 -18 -21 -45 -36 -36 -5 3 -9 1 -9
-5 0 -20 50 -24 70 -6 18 17 21 15 79 -44 90 -92 111 -166 64 -230 -33 -44
-67 -48 -111 -11 -43 35 -62 38 -62 9 l0 -20 -29 20 c-35 25 -87 31 -120 14
-14 -6 -28 -10 -33 -7 -4 3 -8 0 -8 -5 0 -6 -7 -11 -15 -11 -8 0 -15 -4 -15
-9 0 -5 8 -8 17 -7 10 2 27 -3 38 -10 11 -6 36 -15 55 -19 43 -9 60 -22 60
-46 0 -38 34 -58 91 -54 32 2 48 0 40 -5 -8 -4 -11 -15 -7 -25 5 -14 14 -16
47 -11 33 5 40 4 36 -8 -3 -7 5 -24 18 -36 25 -24 63 -23 55 1 -7 21 -9 139
-3 139 15 0 31 -36 22 -51 -9 -18 -3 -62 13 -93 6 -12 9 -22 7 -24 -2 -2 15
-16 38 -31 29 -19 54 -28 77 -27 29 1 34 -2 33 -22 0 -34 74 -99 131 -115 25
-8 70 -12 99 -11 33 2 51 -1 48 -6 -24 -39 49 -21 111 26 20 16 35 21 39 15 3
-6 -5 -16 -19 -22 -16 -8 -37 -36 -58 -78 -43 -86 -49 -92 -73 -75 -17 13 -17
14 7 23 34 13 42 38 18 51 -27 14 -65 -22 -55 -53 3 -12 7 -27 7 -33 1 -7 13
-19 28 -28 25 -14 30 -14 64 3 20 10 36 18 36 16 0 -1 -5 -16 -11 -34 -10 -28
-20 -36 -41 -32 -5 0 -8 -6 -8 -15 0 -8 4 -12 10 -9 5 3 21 -6 34 -20 15 -16
26 -21 28 -14 2 7 17 13 33 14 17 2 32 3 34 4 3 1 -3 7 -12 14 -20 14 -30 54
-16 63 6 3 17 -3 25 -15 10 -13 26 -21 45 -21 33 0 82 27 73 41 -3 5 2 9 11 9
9 0 13 -5 10 -10 -7 -11 20 -42 32 -38 4 2 8 -13 9 -34 1 -25 11 -49 36 -80
38 -46 41 -71 11 -93 -21 -16 -38 2 -21 22 7 9 7 17 -2 28 -17 20 -37 19 -49
-4 -21 -39 47 -89 85 -63 22 14 36 54 28 80 -4 15 -7 30 -6 35 1 4 -2 7 -7 7
-9 0 -22 27 -27 57 -4 21 36 63 60 63 53 0 72 -64 36 -122 -38 -62 -19 -120
41 -124 54 -4 84 77 31 84 -27 4 -40 -23 -23 -49 9 -15 8 -19 -3 -19 -18 0
-46 27 -46 45 0 13 44 72 63 86 5 4 9 23 9 42 0 27 5 38 19 42 10 4 20 13 20
21 3 28 4 32 12 41 5 4 7 3 6 -2 -5 -17 21 -56 44 -64 26 -10 73 5 81 25 10
25 26 15 26 -16 0 -18 -6 -33 -15 -36 -8 -4 -12 -10 -9 -16 3 -5 12 -7 20 -4
8 3 24 0 35 -7 17 -10 22 -9 30 5 6 10 17 18 24 18 8 0 15 7 15 15 0 8 -6 15
-14 15 -17 0 -25 11 -31 40 -4 21 9 27 20 10 10 -17 71 -11 87 8 28 31 30 57
7 85 -17 22 -24 25 -40 17 -10 -6 -19 -15 -19 -20 0 -16 31 -39 45 -33 11 3
13 1 9 -10 -10 -26 -33 -28 -48 -4 -8 12 -25 45 -37 72 -22 47 -49 85 -49 69
0 -4 -12 6 -26 24 -28 34 -44 34 -44 0 0 -12 -8 -30 -17 -40 -12 -14 -17 -38
-17 -96 -1 -79 -14 -106 -44 -95 -10 4 -8 11 7 27 12 12 21 27 21 33 0 14 -29
25 -42 16 -7 -3 -8 -1 -4 5 5 8 -2 12 -18 12 -16 0 -41 -14 -63 -35 -22 -21
-47 -35 -62 -35 -19 0 -22 3 -13 12 20 20 14 26 -23 24 -33 -3 -63 -16 -37
-16 7 0 12 -4 12 -10 0 -22 -48 -9 -73 20 -32 35 -63 45 -100 31 -33 -13 -37
-50 -7 -58 24 -6 16 -23 -10 -23 -21 0 -31 26 -29 70 4 60 -2 98 -18 116 -21
23 -27 44 -13 44 5 0 16 -12 24 -28 18 -35 65 -77 119 -105 31 -16 62 -22 119
-24 43 -1 80 2 83 8 4 5 11 7 16 3 13 -8 97 43 131 80 15 16 35 46 44 66 9 19
18 37 20 39 2 2 21 -11 44 -29 49 -39 130 -81 142 -74 5 3 6 14 3 25 -5 16 -3
18 17 11 36 -13 110 -7 152 13 43 20 106 81 106 101 0 17 30 33 49 26 7 -2 16
0 20 4 3 5 18 15 34 21 40 18 68 69 66 123 -2 48 7 90 20 90 15 0 5 -151 -10
-162 -10 -7 -4 -8 20 -4 43 8 64 25 58 48 -4 15 -1 17 19 12 35 -9 72 3 70 23
-1 13 8 17 41 17 47 1 88 28 79 52 -3 8 7 23 24 36 39 28 28 42 -18 23 -33
-13 -35 -13 -18 0 11 8 25 15 30 16 6 0 19 2 29 4 9 2 15 0 13 -4 -3 -4 -2
-12 2 -18 5 -8 14 -7 32 3 19 11 20 14 6 12 -10 -2 -21 4 -23 12 -3 9 -1 11 4
5 10 -12 83 -16 83 -4 0 11 -61 37 -98 42 -29 5 -92 -17 -103 -34 -3 -6 -9 -1
-12 10 -7 27 -19 26 -54 -3 -46 -39 -75 -42 -105 -11 -66 66 -50 143 51 242
56 55 67 62 77 49 15 -21 41 -20 62 1 16 16 16 16 -5 11 -17 -4 -24 -1 -29 14
-8 28 15 48 48 41 38 -7 43 -31 13 -72 -25 -36 -25 -36 -5 -53 11 -9 20 -26
20 -37 0 -20 39 -53 66 -57 7 -1 18 4 25 12 9 11 9 13 -2 9 -35 -13 -55 38
-34 90 6 16 11 40 11 52 -1 25 -43 73 -63 73 -8 0 -12 4 -9 9 7 10 37 9 73 -3
27 -9 39 -46 24 -73 -5 -11 -7 -29 -4 -41 3 -12 1 -22 -4 -22 -5 0 -7 -14 -5
-31 4 -29 7 -31 39 -26 31 5 33 4 27 -16 -7 -25 -30 -49 -60 -64 -31 -16 -149
-9 -168 9 -20 21 -21 68 -1 68 9 0 12 6 9 15 -12 31 -74 5 -74 -31 0 -12 -3
-15 -11 -7 -12 12 -59 5 -59 -10 0 -6 7 -18 16 -28 13 -14 13 -21 3 -37 -11
-17 -9 -25 7 -49 17 -25 19 -26 22 -8 1 12 12 27 24 34 24 15 103 17 121 3 7
-5 19 -8 27 -6 8 1 25 5 37 8 36 8 97 54 117 87 23 40 28 115 10 150 -7 15
-11 29 -9 31 3 3 -4 13 -15 23 -29 26 -25 33 18 27 20 -2 45 -5 56 -5 10 -1
32 -14 48 -29 34 -31 47 -35 49 -13 1 8 2 21 3 28 1 6 -4 21 -11 32 -17 26
-16 33 5 39 9 3 28 23 42 43 14 21 29 41 33 44 5 3 11 21 14 39 12 77 66 110
139 86 19 -6 21 -3 17 18 -3 14 -11 30 -17 35 -20 17 -88 43 -81 32 3 -7 -3
-11 -15 -11 -12 0 -18 4 -15 10 6 10 -16 52 -41 77 -16 16 -41 -12 -50 -55 -6
-29 -9 -32 -39 -28 -46 6 -85 -28 -90 -78 l-4 -38 25 23 c34 32 89 31 115 -1
10 -14 16 -32 14 -40 -3 -8 -7 -30 -9 -48 -2 -19 -16 -46 -31 -62 -49 -51 -89
-64 -212 -66 -107 -2 -112 -2 -103 16 5 10 13 20 17 22 5 1 26 29 47 61 22 31
41 57 44 57 14 0 -10 -85 -29 -106 l-22 -23 29 5 c16 3 37 13 47 23 16 15 20
25 26 60 1 3 11 -4 24 -15 12 -11 33 -21 47 -22 31 -3 79 32 56 41 -7 3 -18 1
-23 -4 -12 -12 -43 -1 -43 15 0 6 -12 23 -28 37 -15 15 -28 38 -30 52 -2 28
41 128 63 147 19 16 46 5 39 -15 -6 -16 4 -20 22 -7 19 13 23 39 7 61 -8 12
-13 23 -12 25 21 15 153 40 209 39 36 0 130 -37 130 -51 0 -16 -37 -39 -58
-35 -27 4 -28 -1 -1 -25 16 -16 27 -18 55 -12 25 6 34 4 34 -5 0 -18 39 -65
55 -65 17 0 36 49 30 78 -3 17 0 22 9 19 22 -9 59 39 58 74 -1 43 -5 44 -39
11 -34 -34 -66 -35 -111 -3 -16 11 -44 22 -61 23 -18 1 -35 6 -37 10 -3 5 -9
6 -14 3 -4 -3 -19 -1 -32 4 l-23 9 30 12 c43 16 95 9 133 -18 17 -14 32 -21
32 -18 0 4 8 2 18 -3 10 -5 23 -6 30 -2 17 10 -82 103 -102 95 -10 -4 -16 -1
-16 9 0 18 -21 27 -50 22 -11 -2 -20 -1 -21 3 0 4 -2 17 -5 30 -3 16 6 33 28
57 58 58 73 76 74 86 1 5 2 13 3 18 1 9 33 24 56 26 6 0 20 -6 33 -14 22 -13
23 -13 20 11 -4 31 -25 58 -45 58 -10 0 -12 6 -8 19 10 32 -4 71 -23 63 -22
-8 -42 -28 -42 -41 0 -5 -14 -8 -32 -5 -25 4 -39 0 -56 -16 -30 -28 -23 -46
15 -42 38 4 48 -17 32 -67 -17 -53 -23 -63 -51 -84 l-26 -20 -29 27 c-15 14
-33 24 -40 22 -7 -3 -15 -1 -17 3 -6 9 -34 7 -80 -4 -23 -6 -27 -5 -20 6 4 7
9 22 9 32 3 37 21 39 54 7 22 -23 38 -30 58 -28 35 4 63 49 47 75 -16 25 -34
28 -29 4 6 -30 -28 -46 -47 -23 -30 35 -30 42 0 53 16 5 34 21 40 34 11 24 10
25 -31 25 -23 0 -50 7 -60 14 -16 12 -16 17 -5 35 8 13 19 19 28 15 59 -23
153 -7 129 22 -16 20 -77 28 -106 15 -21 -10 -29 -9 -44 5 -26 23 -24 29 13
47 22 11 38 13 49 6 25 -13 29 -11 29 9 0 20 -24 45 -54 56 -17 6 -17 8 -4 29
9 12 27 23 40 25 23 3 25 0 22 -30 -1 -18 0 -27 3 -20 2 6 8 10 13 7 5 -3 11
9 15 26 7 32 -15 69 -42 69 -7 0 -13 5 -13 10 0 9 7 11 26 9 3 0 14 10 25 22
l19 23 28 -21 c30 -22 65 -108 56 -136 -5 -15 -14 -18 -44 -15 -35 3 -37 2
-28 -18 13 -28 51 -48 78 -41 14 4 25 -2 36 -18 22 -34 53 -39 60 -10 3 13 3
32 0 43 -5 15 -1 21 18 26 15 4 26 16 30 32 8 31 -10 57 -23 36 -4 -7 -17 -15
-27 -16 -21 -4 -64 30 -64 51 0 8 -7 16 -15 19 -8 4 -15 11 -15 17 0 6 -16 25
-36 43 -27 26 -35 39 -32 61 3 25 7 28 35 25 25 -3 33 1 38 18 4 12 14 20 23
18 9 -1 28 5 42 15 13 9 20 17 15 17 -5 0 6 13 25 30 l35 29 -26 1 c-14 0 -47
-11 -73 -25 -51 -27 -89 -31 -132 -15 -40 15 -20 25 69 35 21 3 51 14 66 24
41 30 76 33 106 10 14 -11 25 -28 26 -37 0 -10 6 -5 14 13 19 43 -7 95 -48 95
-15 0 -18 5 -13 24 7 28 -11 76 -29 76 -14 0 -45 -32 -45 -47 0 -18 -24 -31
-44 -23 -11 4 -33 0 -50 -8 l-30 -15 25 -10 c40 -15 53 -23 56 -34 5 -14 -76
-56 -93 -49 -8 3 -14 2 -14 -2 0 -17 -142 1 -198 25 -31 13 -32 15 -18 34 15
22 11 48 -8 61 -18 13 -28 9 -22 -7 7 -20 -20 -31 -37 -16 -21 16 -67 117 -67
143 0 14 13 37 30 53 17 16 30 34 30 41 0 20 18 26 39 14 28 -14 40 9 15 27
-23 17 -70 10 -96 -14 -16 -14 -18 -14 -18 -1 0 24 -37 65 -65 70 -34 7 -37 1
-9 -27 18 -18 24 -34 23 -67 0 -24 -3 -36 -6 -28 -8 19 -95 134 -105 138 -29
13 7 19 105 17 86 -1 121 -5 149 -19 49 -24 98 -79 93 -106 -2 -11 0 -22 5
-25 5 -3 6 -18 4 -33 -5 -30 -39 -61 -66 -62 -23 0 -68 21 -68 32 0 5 -4 6
-10 3 -38 -23 29 -106 80 -100 27 4 32 0 51 -45 12 -28 25 -50 29 -50 13 0 62
79 55 90 -4 7 4 9 25 5 35 -6 67 7 92 39 25 31 22 38 -14 32 -69 -11 -125 28
-130 91 -2 15 -8 35 -15 43 -7 8 -32 37 -55 63 -32 37 -39 50 -28 57 13 8 19
65 7 76 -3 4 -20 -5 -37 -20 -18 -14 -41 -28 -53 -31 -25 -7 -97 -13 -97 -9 0
2 11 20 25 40 14 20 26 49 27 63 1 14 2 37 3 51 2 32 -18 83 -42 107 -48 48
-116 75 -153 61 -36 -14 -104 -12 -128 3 -12 7 -23 22 -24 34 -3 18 -5 18 -22
-8 -15 -22 -17 -33 -8 -52 8 -18 8 -26 -4 -35 -8 -7 -14 -19 -14 -26 0 -14 10
-17 47 -15 14 2 24 -5 28 -18 8 -25 54 -40 65 -21 4 7 0 20 -11 31 -19 19 -19
20 -2 44 21 28 56 39 82 26 10 -6 21 -8 24 -4 4 3 20 7 36 9 23 3 38 -4 65
-31 46 -45 47 -62 2 -57 -38 4 -49 -14 -34 -56 4 -13 5 -34 2 -48 -4 -14 -2
-24 5 -24 17 0 13 -35 -6 -56 -19 -20 -57 -29 -82 -19 -12 5 -7 10 16 21 27
14 41 37 48 79 1 6 -4 24 -10 40 -6 17 -10 36 -9 43 1 6 2 19 3 27 0 8 8 15
16 15 8 0 15 6 15 14 0 20 -48 8 -65 -17 -8 -12 -15 -28 -15 -35 0 -8 -9 -21
-20 -30 l-21 -17 26 -34 c14 -19 25 -40 25 -46 0 -16 -48 -37 -70 -30 -25 8
-19 44 10 60 l25 13 -28 7 c-17 5 -35 2 -48 -7 -20 -13 -26 -10 -79 42 -86 84
-109 141 -81 207 11 27 56 63 79 63 5 0 26 -13 47 -30 41 -32 71 -40 61 -15
-7 20 2 19 47 -4 22 -11 50 -17 65 -15 43 8 92 27 92 37 0 4 6 5 13 1 9 -5 9
-4 0 6 -8 9 -19 10 -40 3 -16 -5 -45 -6 -68 -1 -22 5 -45 9 -52 10 -7 1 -10 4
-8 8 2 4 26 2 52 -5 48 -12 84 -8 47 5 -10 4 -22 6 -26 3 -5 -2 -8 1 -8 6 0 6
-9 11 -19 11 -22 0 -51 35 -51 63 0 22 -30 34 -82 32 -34 -1 -39 1 -35 17 6
21 -29 34 -62 23 -12 -4 -22 -2 -22 4 -1 6 -2 16 -3 23 0 7 -15 20 -33 31
l-32 18 3 -85 c1 -47 -1 -86 -5 -86 -15 0 -25 35 -19 65 16 77 -62 166 -141
161 -19 -1 -28 2 -25 10 2 6 -1 17 -7 23 -6 6 -8 11 -4 11 10 0 -35 44 -70 68
-17 12 -41 22 -52 22 -12 0 -21 4 -21 8 0 4 -29 7 -64 6 -54 -2 -63 0 -62 14
0 10 -5 16 -14 13 -8 -2 -20 -4 -26 -5 -6 -1 -23 -9 -37 -19 -84 -54 -77 -51
-77 -33 0 9 6 16 13 16 20 0 50 38 80 103 20 41 33 57 47 57 11 0 20 -7 20
-15 0 -8 -9 -15 -19 -15 -26 0 -34 -15 -22 -39 14 -24 48 -17 58 13 13 39 12
47 -11 71 -25 27 -73 34 -94 13 -16 -16 -22 -7 -15 20 3 13 17 29 32 37 l26
13 -26 10 c-15 6 -29 18 -33 28 -6 15 -8 16 -25 0 -9 -9 -20 -13 -24 -10 -3 3
-14 1 -24 -4 -17 -10 -17 -11 0 -17 12 -5 17 -18 17 -44 l-1 -36 -25 29 c-29
32 -61 37 -99 12 -24 -16 -30 -30 -25 -71 1 -11 -1 -17 -4 -14 -3 3 -8 21 -10
39 -2 19 -13 42 -25 51 -15 13 -20 25 -17 43 3 14 0 26 -5 26 -5 0 -9 5 -9 11
0 6 -13 27 -30 46 -36 40 -37 55 -8 82 25 24 42 18 27 -10 -15 -29 -4 -50 23
-46 33 5 37 50 6 71 -30 21 -54 20 -78 -4 -21 -21 -26 -90 -6 -90 5 0 6 -3 3
-7 -4 -3 -1 -13 7 -22 45 -51 -16 -142 -69 -103 -28 19 -32 57 -13 102 30 68
31 93 8 118 -21 22 -41 26 -70 15z m-98 -271 c-31 -20 -28 -50 5 -63 36 -14
64 -5 103 31 31 29 70 40 70 20 0 -5 -5 -10 -11 -10 -5 0 -8 -4 -4 -10 3 -5
12 -7 20 -3 9 3 15 -1 15 -8 0 -9 -13 -15 -32 -16 -53 -3 -98 -15 -98 -25 0
-5 -4 -7 -9 -3 -11 6 -121 -98 -121 -114 0 -6 -4 -11 -9 -11 -14 0 -7 25 12
44 9 10 17 29 18 44 0 15 1 52 2 82 0 56 14 74 46 62 11 -4 10 -9 -7 -20z
m444 -52 c0 -74 11 -130 25 -130 5 0 9 -10 9 -22 0 -19 -6 -14 -29 22 -42 66
-122 117 -202 127 -22 3 -39 10 -39 15 0 5 4 7 9 3 5 -3 12 -1 16 5 3 5 1 10
-5 10 -6 0 -8 5 -4 11 10 17 52 2 86 -31 31 -30 52 -37 62 -21 3 5 14 7 25 4
22 -6 35 22 21 45 -5 10 -10 13 -10 9 0 -5 -5 -5 -10 -2 -17 10 0 26 23 23 20
-3 22 -9 23 -68z m-530 -42 c18 -23 11 -43 -14 -40 -12 2 -22 -2 -22 -8 0 -19
-23 -5 -26 16 -2 10 1 29 8 41 11 23 33 19 54 -9z m393 4 c31 -15 56 -45 34
-41 -36 6 -43 -10 -12 -29 17 -11 20 -11 14 0 -6 10 -5 10 5 1 22 -20 8 -125
-22 -165 -26 -35 -62 -46 -85 -26 -18 14 -16 38 2 38 18 0 20 17 3 23 -10 4
-10 7 0 18 18 19 16 45 -2 30 -11 -10 -16 -8 -21 8 -8 25 -30 28 -39 6 -3 -9
-13 -15 -22 -13 -9 2 -19 -3 -22 -11 -3 -8 0 -11 7 -7 6 4 11 5 11 2 0 -2 3
-11 6 -20 4 -11 1 -16 -10 -16 -9 0 -16 -5 -16 -11 0 -5 4 -8 9 -5 5 3 13 0
19 -7 14 -16 0 -40 -25 -44 -23 -4 -63 17 -63 33 0 7 -5 14 -12 16 -6 2 -13
21 -14 42 -2 21 -6 41 -8 44 -3 2 -1 13 4 23 7 12 6 19 -3 22 -21 8 3 22 46
26 15 2 6 19 -13 24 -46 12 -6 40 80 55 57 10 105 5 149 -16z m240 0 c5 -10 5
-27 0 -41 -7 -18 -12 -21 -23 -12 -8 7 -20 10 -27 9 -22 -5 -21 26 1 50 22 24
34 22 49 -6z m-120 -190 c-2 -47 -15 -76 -29 -67 -4 2 -23 -13 -43 -35 -38
-43 -68 -50 -104 -25 -24 17 -37 7 -22 -15 14 -24 11 -26 -30 -25 -30 0 -37 3
-29 13 6 6 7 12 3 12 -4 0 -2 7 5 15 10 12 10 15 -4 15 -9 0 -16 -4 -16 -9 0
-5 -13 -14 -30 -20 -20 -6 -30 -7 -30 0 0 6 -4 8 -9 5 -4 -3 -25 13 -44 35
-20 22 -41 38 -46 35 -11 -7 -24 27 -26 71 -1 35 29 93 48 93 8 0 8 -3 -1 -9
-13 -8 -10 -48 9 -107 22 -71 107 -106 150 -63 20 20 23 20 34 6 6 -9 29 -19
51 -22 34 -6 43 -3 71 25 45 44 71 130 49 161 -6 8 2 2 17 -14 24 -24 28 -36
26 -75z m-707 54 c20 -2 42 -7 50 -12 7 -5 15 -9 18 -9 20 -3 50 -18 50 -25 0
-5 8 -11 18 -14 10 -4 27 -14 38 -24 11 -10 28 -24 39 -31 18 -11 16 -11 -15
-6 -19 4 -44 7 -55 7 -33 -2 -80 -33 -106 -70 -62 -93 -124 -139 -181 -137
-21 1 -25 -2 -16 -12 16 -20 89 -16 118 7 16 12 29 15 36 9 7 -6 19 -2 34 11
13 11 20 20 15 20 -4 0 -2 7 5 15 11 14 15 14 37 0 37 -25 71 2 87 70 9 34 20
45 48 45 23 0 41 -12 79 -52 27 -28 48 -53 46 -54 -2 -2 -84 -14 -137 -19 -14
-2 -25 -4 -25 -5 0 -1 -13 -4 -28 -6 -34 -4 -160 -41 -205 -60 -18 -8 -38 -14
-44 -14 -22 0 -205 -94 -285 -147 -81 -53 -105 -64 -85 -40 14 16 24 66 27
132 2 57 12 95 25 95 5 0 22 -12 38 -27 62 -58 98 -67 131 -34 27 27 27 60 -2
92 -31 37 -115 54 -141 29 -16 -16 4 -29 33 -20 59 17 126 -47 88 -84 -13 -13
-19 -12 -53 5 -114 58 -122 187 -16 235 20 10 39 19 42 20 4 1 6 -21 6 -49 1
-60 18 -94 64 -120 16 -10 30 -16 30 -13 0 2 14 1 30 -4 20 -6 30 -5 30 2 0 6
3 9 6 5 16 -15 64 56 64 95 0 30 -34 68 -62 68 -18 0 -19 -2 -7 -16 8 -9 12
-27 11 -40 -2 -15 3 -26 12 -30 22 -8 20 -19 -6 -44 -42 -40 -110 -12 -136 55
-13 34 -11 60 5 76 8 8 14 5 22 -10 7 -12 9 -21 5 -21 -13 0 18 -29 52 -49
l34 -20 -6 27 c-11 43 -44 82 -75 89 -16 3 -29 9 -29 14 0 12 82 89 89 84 4
-2 17 2 29 9 22 12 36 12 124 2z m1113 -15 c41 -18 85 -56 85 -73 0 -5 -15
-16 -34 -24 -32 -16 -66 -67 -66 -99 0 -12 10 -9 40 11 27 18 40 34 40 49 0
13 7 26 16 29 21 8 23 6 26 -30 7 -95 -99 -158 -157 -94 -15 17 -15 19 4 32
13 9 19 22 16 36 -2 12 0 24 6 27 16 10 10 25 -10 25 -28 0 -59 -49 -54 -85
13 -99 164 -111 209 -17 10 20 17 54 17 75 -1 40 3 42 39 28 52 -20 92 -79 84
-124 -15 -84 -127 -161 -156 -107 -9 17 -6 25 15 46 21 21 33 25 72 23 53 -4
72 16 26 26 -15 4 -33 8 -40 10 -7 2 -15 0 -18 -6 -4 -5 -10 -7 -15 -4 -5 3
-25 -10 -44 -29 -36 -37 -39 -63 -9 -98 28 -31 99 -9 142 44 22 28 25 29 35
12 13 -24 15 -35 20 -109 3 -33 9 -75 15 -92 l10 -33 -57 38 c-31 21 -82 52
-112 68 -30 16 -57 32 -58 37 -2 4 -8 5 -13 1 -5 -3 -9 0 -9 6 0 6 -4 9 -9 5
-5 -3 -16 2 -24 10 -9 8 -21 15 -27 15 -7 0 -26 7 -43 14 -37 17 -142 53 -178
60 -13 3 -34 7 -46 10 -87 22 -189 39 -221 37 -20 -1 -15 7 31 54 42 43 60 55
84 55 29 0 33 -4 48 -49 9 -27 24 -56 35 -66 16 -15 21 -15 47 -2 28 15 30 14
48 -14 15 -22 28 -29 53 -29 20 0 31 -4 27 -10 -3 -5 0 -11 7 -11 44 -5 56 -7
64 -11 12 -7 46 5 45 17 0 4 -11 9 -23 11 -56 6 -100 37 -153 109 -16 22 -42
53 -59 68 -28 27 -28 28 -4 16 14 -6 31 -22 37 -35 13 -28 27 -31 35 -6 13 40
-9 81 -44 82 -13 0 -13 2 -1 9 8 5 24 7 35 5 53 -12 66 -11 71 7 5 15 13 18
33 13 43 -9 70 -10 71 -1 1 4 1 11 1 16 0 11 -74 25 -115 22 -28 -3 -77 -8
-82 -10 -2 -1 -4 0 -5 0 -2 1 -23 -8 -48 -21 -49 -24 -82 -54 -73 -64 4 -3 1
-6 -5 -6 -22 0 -27 -2 -40 -12 -9 -8 -11 -7 -7 4 3 8 19 22 35 32 17 9 30 21
30 27 0 5 4 9 9 9 6 0 27 10 47 22 35 21 46 24 101 31 12 1 25 6 29 9 10 11
73 0 119 -21z m-910 0 c3 -5 1 -12 -4 -15 -5 -3 -11 1 -15 9 -6 16 9 21 19 6z
m580 -1 c-3 -5 -10 -10 -16 -10 -5 0 -9 5 -9 10 0 6 7 10 16 10 8 0 12 -4 9
-10z m59 -99 c4 -5 -3 -7 -14 -4 -23 6 -26 13 -6 13 8 0 17 -4 20 -9z m-404
-191 c14 -26 61 -26 85 0 16 18 27 20 79 16 119 -10 181 -21 366 -70 8 -2 36
-13 62 -24 25 -11 49 -18 52 -15 3 4 6 1 6 -5 0 -7 3 -11 8 -10 14 4 173 -81
255 -136 227 -153 405 -356 527 -604 51 -103 107 -257 114 -313 3 -19 5 -35 5
-36 1 -2 1 -5 2 -8 0 -2 4 -18 9 -35 8 -27 16 -94 25 -194 2 -16 -3 -43 -11
-61 -11 -27 -11 -35 0 -51 13 -18 13 -50 2 -154 -7 -65 -22 -155 -26 -155 -1
0 -3 -11 -6 -25 -9 -49 -66 -211 -101 -287 -74 -158 -184 -315 -308 -438 -83
-82 -145 -137 -145 -129 0 4 -8 -2 -17 -12 -10 -11 -30 -25 -45 -33 -15 -8
-36 -21 -45 -30 -42 -37 -225 -128 -336 -165 -142 -49 -235 -68 -384 -82 -56
-5 -66 -4 -78 13 -19 27 -71 29 -87 3 -18 -29 -39 -28 -298 14 -8 2 -35 9 -60
16 -25 7 -50 13 -57 14 -7 1 -16 5 -19 9 -4 4 -16 7 -26 7 -10 0 -26 4 -36 9
-9 5 -33 15 -52 24 -71 30 -196 94 -239 123 -24 16 -51 34 -60 39 -52 31 -148
113 -234 200 -59 60 -175 208 -199 255 -7 14 -16 27 -19 30 -22 18 -139 291
-154 360 -3 11 -7 29 -10 41 -2 11 -7 29 -10 39 -3 10 -8 31 -10 46 -2 16 -7
41 -9 55 -18 86 -22 181 -8 209 13 26 13 34 -1 62 -9 18 -14 35 -12 38 2 3 6
37 9 75 3 39 9 84 12 100 3 17 7 41 9 55 2 14 4 25 5 25 2 0 4 9 13 55 3 14
15 52 27 85 11 33 21 61 20 62 -1 10 41 103 82 181 88 173 231 351 372 466 21
17 43 36 50 41 60 54 275 182 299 177 4 -1 7 3 7 10 0 6 3 8 7 5 3 -4 11 -3
17 1 17 13 113 49 195 72 91 27 126 34 210 45 18 2 35 5 36 7 2 2 31 4 64 5
51 2 62 0 71 -17z m-935 -45 c17 -11 31 -26 33 -32 4 -23 -14 -14 -37 17 -12
17 -25 29 -29 27 -4 -3 -16 -1 -27 4 -17 7 -17 8 5 6 14 -1 39 -11 55 -22z
m2045 21 c0 -2 -13 -6 -29 -8 -17 -2 -28 -1 -25 4 5 8 54 12 54 4z m-84 -31
c-9 -9 -16 -21 -16 -26 0 -20 -18 -7 -22 16 -4 19 -2 23 7 15 9 -7 16 -6 25 5
7 9 15 13 18 11 2 -3 -3 -12 -12 -21z m-2126 11 c0 -2 -7 -7 -16 -10 -8 -3
-12 -2 -9 4 6 10 25 14 25 6z m2340 -26 c0 -5 -2 -10 -4 -10 -3 0 -8 5 -11 10
-3 6 -1 10 4 10 6 0 11 -4 11 -10z m-2413 -11 c-26 -15 -67 -21 -67 -10 0 6 8
8 18 6 10 -2 25 1 33 6 8 5 19 9 24 9 6 -1 2 -5 -8 -11z m-77 -19 c0 -5 -7 -7
-15 -4 -8 4 -15 8 -15 10 0 2 7 4 15 4 8 0 15 -4 15 -10z m-195 -897 c-4 -10
-8 -23 -9 -30 -1 -7 -5 -16 -9 -19 -4 -4 -7 -17 -7 -29 0 -12 -6 -22 -15 -22
-8 0 -12 4 -9 8 2 4 0 10 -4 13 -5 3 -9 20 -8 38 1 24 7 36 26 45 34 17 43 16
35 -4z m3019 2 c22 -17 29 -70 10 -86 -11 -9 -15 -7 -20 7 -3 11 -12 36 -19
57 -15 41 -5 48 29 22z m-3154 -24 c0 -6 -4 -13 -10 -16 -5 -3 -10 -17 -10
-31 0 -22 3 -23 20 -14 16 8 20 8 20 -3 0 -8 9 -22 21 -33 27 -25 41 -52 34
-65 -4 -6 -14 -2 -24 10 -10 11 -21 18 -24 15 -3 -3 -11 -2 -19 2 -10 7 -42 9
-63 5 -3 -1 -7 0 -9 2 -2 1 -13 -7 -25 -17 -12 -11 -21 -15 -22 -10 0 5 -2 17
-4 28 -7 36 23 83 75 118 29 20 40 22 40 9z m3296 -18 c43 -27 64 -61 70 -109
1 -15 -3 -24 -12 -24 -8 0 -14 4 -14 8 0 4 -10 9 -22 10 -66 5 -95 1 -120 -18
-38 -28 -37 -4 2 45 17 21 30 41 30 45 0 5 9 6 20 3 14 -4 20 0 20 11 0 9 -9
25 -20 36 -29 29 -5 25 46 -7z m-3288 -142 c30 -1 41 -30 17 -47 -30 -22 -79
-17 -104 10 l-22 24 28 9 c15 6 35 9 43 7 8 -1 25 -3 38 -3z m3329 -10 c27
-14 -39 -52 -82 -48 -45 5 -51 11 -37 41 9 21 16 23 57 20 26 -3 54 -8 62 -13z
m-131 -61 c5 -5 22 -11 37 -12 31 -3 36 -24 8 -33 -10 -3 -22 -16 -25 -28 -6
-21 -7 -21 -18 -3 -14 25 -28 86 -19 86 4 0 11 -4 17 -10z m-3188 -556 c42
-12 22 -52 -29 -57 -35 -3 -89 10 -89 22 0 11 54 40 75 41 11 0 30 -3 43 -6z
m3304 -12 c42 -28 19 -43 -65 -44 -36 0 -51 14 -42 41 8 27 68 29 107 3z
m-3244 -45 c-2 -13 -16 -38 -31 -56 -15 -18 -27 -37 -27 -42 0 -6 -8 -5 -20 1
-17 9 -20 8 -20 -14 0 -14 10 -32 23 -41 22 -16 22 -16 -8 -9 -58 13 -105 64
-109 117 -4 36 3 55 13 38 11 -17 61 -25 122 -19 9 1 25 12 34 25 22 29 26 29
23 0z m3182 -29 c50 1 90 13 90 25 0 8 4 7 9 -2 5 -7 7 -21 6 -30 -2 -9 -4
-22 -4 -28 -1 -18 -72 -94 -81 -88 -5 3 -10 0 -12 -6 -2 -7 -10 -10 -17 -8
-11 4 -10 8 3 21 24 24 21 52 -5 45 -13 -4 -22 0 -26 11 -4 9 -14 24 -24 33
-10 8 -21 28 -25 43 l-7 29 31 -23 c18 -13 44 -23 62 -22z m-3153 -60 c1 -7 8
-34 16 -60 13 -41 13 -48 1 -48 -18 0 -54 36 -54 54 0 39 35 89 37 54z m3073
-47 c-1 -20 -24 -51 -38 -51 -6 0 -13 -6 -15 -12 -3 -7 -6 -3 -6 9 -1 12 3 32
8 45 5 13 12 32 16 43 6 20 7 20 21 1 8 -11 14 -27 14 -35z m-2282 -913 c17
-7 32 -16 32 -20 0 -4 8 -8 18 -8 9 0 26 -7 36 -15 11 -8 26 -15 33 -15 8 0
33 -9 55 -20 23 -11 50 -20 59 -20 10 0 21 -5 24 -10 4 -6 11 -8 16 -4 5 3 16
1 23 -5 8 -7 18 -11 22 -9 5 1 32 -3 59 -10 84 -20 128 -27 203 -31 20 -1 14
-15 -17 -36 -16 -10 -29 -22 -28 -25 1 -3 -7 -15 -18 -27 -31 -36 -96 -27
-100 14 -8 68 -68 112 -97 69 -3 -5 -18 4 -33 22 -15 18 -31 30 -36 26 -5 -3
-9 -1 -9 5 0 6 -7 8 -15 4 -9 -3 -24 2 -34 11 -21 19 -44 23 -83 13 -35 -9
-37 -29 -3 -23 14 3 25 1 25 -3 0 -4 7 -8 14 -8 17 0 86 -44 86 -55 0 -4 6
-13 13 -20 29 -32 51 -62 37 -51 -25 19 -41 -26 -24 -66 7 -17 17 -30 21 -29
4 2 9 -1 11 -7 3 -13 -15 -14 -50 -2 -17 5 -34 5 -45 -2 -10 -6 -13 -11 -7
-11 6 0 11 -7 11 -15 0 -8 -5 -11 -11 -7 -15 9 -63 16 -93 13 -22 -2 -14 -18
15 -30 41 -16 69 -19 126 -9 67 12 69 12 84 21 6 5 12 4 12 -2 0 -12 -86 -45
-99 -37 -5 4 -12 2 -15 -2 -11 -19 -107 1 -151 31 -31 21 -64 57 -65 70 0 4 7
7 16 7 25 0 74 40 74 60 0 10 5 22 10 25 6 3 10 13 10 20 0 11 -8 10 -35 -6
-35 -21 -59 -51 -49 -61 2 -3 -2 -11 -11 -18 -19 -16 -25 -11 -29 27 -8 64 47
124 107 117 49 -5 77 -44 42 -58 -8 -3 -15 -18 -15 -34 0 -15 -5 -33 -12 -40
-23 -23 27 -13 51 9 32 30 24 92 -14 125 -50 43 -140 22 -171 -38 -20 -38 -25
-100 -10 -110 7 -5 4 -8 -7 -8 -27 0 -80 25 -101 48 -23 26 -34 106 -16 117 8
5 11 4 7 -2 -8 -12 24 -23 66 -23 79 0 135 82 88 129 -12 12 -28 21 -37 21
-28 0 -83 -31 -109 -61 l-24 -29 -13 22 c-6 13 -13 50 -14 83 -1 33 -3 62 -4
65 -1 3 -2 8 -1 12 0 4 -6 22 -14 41 l-14 34 97 -64 c53 -35 112 -69 130 -75z
m1662 103 c-6 -12 -13 -49 -15 -84 -10 -132 -18 -147 -59 -104 -58 60 -103 71
-140 34 -22 -22 -24 -28 -14 -61 12 -38 64 -72 103 -68 47 6 66 13 62 25 -2 7
-11 10 -18 8 -8 -2 -30 -3 -49 -3 -46 2 -86 43 -70 73 23 41 94 8 139 -64 44
-72 -5 -161 -95 -172 -19 -3 -21 0 -14 29 16 72 -60 152 -134 143 -79 -11
-117 -96 -66 -147 25 -25 55 -27 45 -2 -8 19 -13 41 -14 59 -1 6 -8 13 -17 15
-15 3 -14 6 2 26 53 64 154 12 154 -80 0 -19 -3 -37 -6 -41 -11 -11 -34 5 -34
25 0 21 -11 34 -52 61 -31 20 -35 12 -17 -37 14 -37 48 -65 85 -68 26 -3 25
-4 -24 -49 -37 -34 -63 -49 -94 -55 -57 -10 -109 -11 -115 -1 -2 4 -9 5 -14 2
-5 -4 -9 -2 -9 3 0 5 -7 9 -15 9 -23 0 -95 35 -89 44 2 5 20 -1 39 -11 19 -11
35 -18 35 -16 0 2 21 -1 48 -8 26 -7 56 -12 67 -10 43 6 90 16 97 20 13 8 -3
32 -20 29 -67 -13 -94 -13 -89 0 6 14 -19 29 -33 20 -5 -3 -22 -7 -39 -9 -33
-4 -42 10 -13 21 24 9 32 23 32 61 0 38 -12 41 -37 8 -17 -22 -83 -63 -83 -52
0 3 13 12 30 21 16 8 43 36 61 61 61 89 125 134 186 129 16 -1 20 2 13 10 -14
17 -89 18 -116 0 -27 -17 -54 -20 -54 -4 0 5 4 8 9 4 5 -3 12 -1 15 4 3 5 18
12 33 16 40 9 217 87 221 97 2 4 7 8 12 8 9 0 149 85 164 100 15 15 19 4 6
-19z m-2210 -139 c0 -5 -7 -9 -15 -9 -8 0 -15 4 -15 9 0 4 7 8 15 8 8 0 15 -4
15 -8z m50 -8 c0 -2 -9 -4 -20 -4 -11 0 -20 4 -20 9 0 5 9 7 20 4 11 -3 20 -7
20 -9z m268 -25 c-9 -5 -24 -16 -33 -25 -23 -23 -18 -6 8 26 14 18 26 24 32
18 7 -6 4 -13 -7 -19z m1971 -32 c1 -4 -8 -3 -19 3 -11 6 -20 16 -20 21 0 6
-7 9 -15 5 -10 -4 -15 1 -15 15 0 20 2 19 34 -8 19 -15 35 -32 35 -36z m-2205
45 c3 -5 -1 -9 -9 -9 -8 0 -15 4 -15 9 0 4 4 8 9 8 6 0 12 -4 15 -8z m451 -13
c12 -18 -4 -58 -28 -71 -23 -12 -87 -12 -99 0 -8 9 18 41 52 65 27 19 65 22
75 6z m1880 -19 c-3 -5 -12 -10 -18 -10 -7 0 -6 4 3 10 19 12 23 12 15 0z
m-2195 -16 c0 -8 -19 -13 -24 -6 -3 5 1 9 9 9 8 0 15 -2 15 -3z m40 2 c0 -2
-7 -6 -15 -10 -8 -3 -15 -1 -15 4 0 6 7 10 15 10 8 0 15 -2 15 -4z m2105 -5
c-8 -7 -65 -8 -60 -1 2 3 18 6 34 6 17 0 28 -2 26 -5z m-625 -13 c0 -4 -5 -8
-10 -8 -6 0 -15 -11 -20 -24 -8 -23 -11 -24 -40 -13 -41 15 -61 2 -80 -54 -17
-51 -25 -59 -62 -59 -20 0 -37 12 -65 45 -20 25 -44 45 -52 45 -9 0 -11 3 -6
9 9 8 41 13 150 25 17 2 30 5 30 6 0 1 9 3 20 5 11 2 29 6 40 8 11 2 31 8 44
14 30 12 51 12 51 1z m-445 -95 c22 4 23 3 9 -19 -16 -24 -4 -43 14 -21 6 7
24 14 41 15 24 2 38 -6 67 -37 21 -21 43 -37 50 -34 13 5 30 -50 19 -67 -3 -5
-2 -10 4 -10 17 0 -8 -55 -36 -81 l-26 -24 17 26 c14 23 15 30 1 77 -15 49
-58 103 -87 108 -7 1 -17 3 -23 5 -17 5 -53 -11 -59 -27 -5 -13 -10 -13 -32 5
-29 23 -64 27 -94 11 -24 -13 -60 -63 -66 -92 -13 -59 -14 -77 -4 -83 5 -3 10
-11 10 -16 0 -13 -20 7 -41 41 -16 26 -18 55 -5 104 5 22 11 27 26 23 11 -3
20 -1 20 4 0 4 14 24 31 44 25 29 34 33 50 25 10 -6 19 -8 19 -5 0 3 11 -2 25
-11 24 -16 25 -15 25 4 0 12 -4 24 -10 27 -20 12 -10 26 11 14 12 -6 32 -9 44
-6z m-435 -68 c19 -23 8 -25 -14 -4 -11 11 -15 19 -9 19 6 0 16 -7 23 -15z
m374 -31 c25 -25 18 -41 -16 -35 -15 2 -8 -17 8 -23 15 -6 15 -8 -1 -26 -18
-20 -15 -24 16 -21 9 1 21 -9 27 -21 l11 -23 7 23 c5 18 12 23 31 19 23 -4 23
-3 8 19 -19 29 -19 32 3 37 14 4 14 6 -5 12 -39 12 -21 55 22 55 44 0 85 -72
85 -149 0 -44 -3 -49 -25 -55 -31 -8 -32 -22 -3 -29 18 -5 19 -9 9 -21 -43
-51 -227 -51 -279 1 -10 10 -8 14 13 19 25 6 30 32 6 26 -21 -4 -37 22 -34 58
5 64 14 100 25 100 6 0 8 3 5 6 -10 10 33 44 54 44 10 0 25 -7 33 -16z m-284
-14 c0 -10 -38 -1 -45 10 -2 4 7 5 20 2 14 -2 25 -8 25 -12z m25 -18 c-27 -20
-52 -36 -57 -34 -4 1 -8 -2 -8 -8 0 -5 -4 -10 -10 -10 -19 0 -10 19 13 26 30
9 57 33 51 47 -2 7 8 13 27 14 l32 2 -48 -37z m599 29 c3 -5 14 -8 24 -6 9 1
11 0 5 -2 -18 -6 -16 -20 5 -32 9 -6 13 -11 8 -11 -10 0 -86 50 -86 56 0 8 39
3 44 -5z m-580 -96 c3 -9 0 -15 -9 -15 -9 0 -12 6 -9 15 4 8 7 15 9 15 2 0 5
-7 9 -15z m-44 -106 c0 -5 10 -9 23 -7 13 2 22 -2 21 -9 -1 -7 -2 -19 -2 -26
-1 -8 -13 -19 -27 -25 -23 -11 -27 -9 -36 14 -10 28 -4 64 12 64 5 0 9 -5 9
-11z m670 -46 c-9 -24 -16 -30 -31 -26 -23 6 -43 39 -35 59 3 7 12 11 20 8 8
-3 17 0 21 6 5 9 11 8 21 -2 11 -11 12 -21 4 -45z m-501 -73 c0 -10 -3 -8 -9
5 -12 27 -12 43 0 25 5 -8 9 -22 9 -30z"/>
<path d="M1986 4432 c-43 -14 -46 -17 -31 -28 10 -8 21 -11 25 -9 15 9 90 13
90 4 0 -5 -6 -9 -12 -9 -8 0 -7 -4 3 -10 16 -9 50 -7 69 5 5 3 17 2 25 -3 13
-7 12 -10 -8 -19 -28 -13 -38 -39 -25 -72 l8 -24 23 25 c30 33 71 58 101 60
68 6 -56 74 -154 84 -25 3 -49 7 -55 8 -5 2 -32 -4 -59 -12z"/>
<path d="M2098 3501 c-125 -40 -257 -150 -308 -256 -106 -222 53 -394 273
-297 76 34 186 151 174 185 -2 7 -11 -3 -21 -21 -47 -91 -171 -167 -271 -167
-111 0 -175 66 -171 174 6 174 207 358 413 377 57 5 77 3 115 -14 69 -30 75
-59 32 -152 -43 -93 -48 -123 -29 -165 37 -76 118 -72 203 10 30 30 52 58 49
62 -4 4 -21 -10 -38 -30 -51 -62 -125 -91 -170 -67 -27 15 -24 50 11 130 50
113 36 191 -40 230 -50 25 -143 26 -222 1z"/>
<path d="M3159 3396 c-2 -2 -35 -6 -74 -9 -251 -21 -438 -119 -680 -358 l-110
-109 -75 -2 -75 -2 69 -5 69 -6 -144 -146 c-190 -193 -287 -257 -426 -280 -84
-15 -145 -6 -215 29 -67 34 -100 81 -96 136 3 40 25 64 24 25 -1 -33 27 -46
58 -26 53 35 23 107 -38 91 -77 -19 -86 -131 -17 -205 36 -39 124 -72 201 -77
188 -11 361 80 603 320 l141 138 133 0 c73 0 133 -4 133 -8 0 -15 -176 -276
-212 -314 -20 -21 -58 -48 -87 -61 -28 -13 -49 -26 -47 -28 3 -2 -37 -3 -88
-1 -78 3 -94 1 -100 -13 -8 -22 15 -28 82 -21 31 4 71 6 87 4 17 -1 68 -3 115
-3 71 0 94 4 136 25 l51 26 -10 -36 c-22 -80 14 -195 75 -240 65 -48 160 -31
173 30 12 56 -38 80 -85 42 -27 -22 -21 -56 13 -67 21 -8 21 -8 -5 -12 -67
-10 -137 60 -146 146 -15 165 147 328 373 375 43 8 107 13 165 11 95 -4 114
-6 203 -26 l49 -11 -46 -45 c-83 -80 -85 -171 -6 -226 l24 -17 -25 0 c-49 0
-215 -48 -279 -80 -38 -19 -90 -58 -126 -94 -154 -154 -114 -335 89 -402 29
-9 71 -34 94 -55 70 -64 196 -87 296 -53 60 20 62 36 2 19 -93 -29 -253 -1
-296 51 -10 12 -1 14 59 14 98 0 164 15 257 60 95 46 181 119 217 186 27 51
45 134 28 134 -6 0 -10 -10 -10 -22 -1 -69 -93 -180 -204 -247 -153 -92 -355
-121 -384 -55 -62 135 130 371 351 430 106 28 193 4 227 -62 20 -39 19 -38 26
-32 11 12 -35 84 -67 102 -51 30 -153 33 -239 7 -134 -41 -267 -147 -312 -248
-22 -50 -30 -150 -15 -191 8 -22 7 -23 -15 -17 -42 12 -93 61 -106 101 -8 23
-11 59 -8 88 12 111 89 203 233 278 128 67 180 80 286 72 76 -6 87 -4 87 10 0
21 -40 30 -105 22 -64 -7 -79 6 -79 68 0 56 31 114 82 152 l40 32 99 -25 c192
-47 282 -54 313 -23 11 11 20 25 20 30 0 22 -52 58 -103 73 -71 21 -253 17
-324 -8 -49 -17 -55 -17 -140 0 -129 26 -128 26 -249 31 -117 4 -239 -17 -291
-51 -21 -14 -22 -14 -16 2 10 26 -123 -104 -159 -156 -43 -61 -117 -94 -220
-97 -43 -2 -78 1 -78 5 0 5 20 16 45 24 137 47 275 193 386 407 53 105 123
222 162 275 74 98 198 185 265 185 18 0 32 5 32 10 0 9 -32 14 -41 6z m-119
-49 c-86 -42 -305 -280 -364 -394 l-17 -33 -134 0 c-74 0 -135 4 -135 8 0 16
255 258 322 305 107 76 253 134 343 136 29 1 28 0 -15 -22z m783 -615 c89 -39
49 -77 -72 -68 -86 6 -261 45 -261 58 0 4 3 8 8 8 4 1 30 7 57 15 72 20 209
13 268 -13z"/>
<path d="M2567 4823 c-20 -37 -4 -85 26 -81 28 4 49 45 36 70 -5 9 -18 22 -29
28 -16 9 -22 6 -33 -17z"/>
<path d="M552 2924 c-43 -25 -64 -64 -67 -122 -2 -21 -7 -37 -11 -37 -13 -1
-57 -26 -74 -43 -8 -9 -35 -29 -60 -45 l-45 -29 37 4 c21 2 39 -1 41 -7 3 -5
16 1 31 14 18 17 29 22 37 14 7 -7 20 -1 41 21 l31 31 11 -25 c6 -14 13 -27
16 -30 32 -31 32 -39 -1 -85 l-33 -45 -26 25 c-15 14 -33 23 -42 20 -8 -3 -22
3 -32 14 -14 15 -26 19 -50 14 -17 -3 -35 -10 -41 -16 -7 -7 -6 -8 3 -3 7 4
15 1 18 -8 3 -9 10 -14 14 -11 4 3 14 -3 21 -12 8 -9 37 -31 65 -49 39 -25 50
-38 49 -56 -5 -49 60 -148 86 -132 5 3 9 1 9 -4 0 -16 63 -3 82 16 24 23 31
60 15 81 -13 17 -43 28 -33 12 8 -13 -24 -48 -52 -56 -34 -10 -84 44 -80 87 2
24 7 32 20 30 23 -4 89 64 82 83 -4 8 -1 15 5 15 7 0 8 8 1 24 -5 13 -5 27 0
32 5 5 1 27 -10 51 -15 33 -28 46 -59 59 -22 8 -42 21 -44 28 -8 20 20 73 48
92 25 16 30 16 54 2 14 -8 25 -20 24 -25 -3 -17 21 -33 35 -24 21 13 24 57 4
80 -30 37 -74 43 -120 15z m37 -253 c-7 -2 -18 4 -26 15 -22 30 -15 39 13 13
16 -15 21 -25 13 -28z m0 -98 c-22 -27 -39 -45 -39 -39 0 18 26 56 38 56 12 0
12 -3 1 -17z"/>
<path d="M4537 2932 c-30 -19 -43 -62 -27 -91 14 -28 28 -26 36 3 6 24 27 40
52 39 36 -1 44 -6 62 -35 30 -49 26 -72 -15 -87 -51 -18 -78 -62 -77 -127 0
-29 6 -67 13 -84 13 -27 60 -60 88 -60 7 0 10 -14 9 -31 -3 -39 -47 -89 -74
-84 -10 2 -24 4 -30 4 -7 1 -18 18 -27 38 l-14 37 -17 -27 c-25 -37 -14 -81
26 -100 32 -15 80 -13 86 4 2 5 9 9 15 9 26 1 65 82 61 128 -1 18 7 27 37 39
22 8 39 19 39 23 0 5 23 23 50 41 48 31 58 40 43 38 -27 -4 -63 3 -58 11 12
20 -5 9 -36 -22 -17 -18 -28 -27 -25 -20 13 22 -22 13 -49 -14 -14 -14 -27
-25 -28 -23 -1 2 -17 25 -35 51 -17 25 -28 48 -23 50 5 1 20 20 34 41 l26 39
25 -27 c18 -19 31 -25 45 -20 14 4 24 0 32 -13 10 -15 20 -18 53 -14 49 5 55
9 30 19 -10 3 -39 23 -64 43 -25 20 -56 41 -70 47 -15 6 -25 19 -26 34 -5 72
-23 108 -64 132 -40 24 -73 27 -103 9z m84 -243 c-11 -12 -23 -20 -27 -17 -3
4 4 16 16 28 28 28 38 18 11 -11z m8 -129 c12 -18 13 -22 2 -19 -8 3 -21 16
-30 29 -12 18 -13 22 -2 19 8 -3 21 -16 30 -29z"/>
<path d="M2572 505 c-28 -35 -28 -46 1 -73 22 -21 24 -21 39 -5 27 32 28 52 4
79 l-22 27 -22 -28z"/>
</g>
</svg>
